<?xml version="1.0" standalone="no"?>
<!DOCTYPE svg PUBLIC "-//W3C//DTD SVG 20010904//EN"
 "http://www.w3.org/TR/2001/REC-SVG-20010904/DTD/svg10.dtd">
<svg version="1.0" xmlns="http://www.w3.org/2000/svg"
 width="512.000000pt" height="512.000000pt" viewBox="0 0 512.000000 512.000000"
 preserveAspectRatio="xMidYMid meet">

<g transform="translate(0.000000,512.000000) scale(0.100000,-0.100000)"
fill="#000000" stroke="none">
<path d="M240 2507 c0 -118 24 -310 56 -452 71 -315 220 -632 423 -900 95
-126 307 -338 431 -432 328 -247 695 -401 1100 -458 166 -24 471 -25 631 -2
506 74 949 291 1308 641 208 204 340 384 466 638 144 291 221 589 241 941 l7
117 -2332 0 -2331 0 0 -93z"/>
</g>
</svg>
